Coordinates
version=1
nRows=49
nColumns=12
inDegrees=yes

Units are S.I. units (second, meters, Newtons, ...)
Angles are in degrees

endheader
time	SC_y	SC_z	SC_x	AC_y	AC_z	AC_x	GH_y	GH_z	GH_yy	EL_x	PS_y
       0.0              -33.66          3.518          9.595          32.56         -1.089          7.348         -52.78          15.06          155.2          108.8          117.8
  0.002321              -33.67          3.521          9.599          32.56         -1.092          7.348         -52.75          15.06          155.1          108.8          117.8
  0.004642              -33.67          3.524          9.603          32.56         -1.094          7.347         -52.72          15.07          155.1          108.8          117.8
  0.006964              -33.67          3.527          9.608          32.57         -1.097          7.347         -52.69          15.07          155.1          108.8          117.7
  0.009285              -33.68           3.53          9.613          32.57           -1.1          7.346         -52.66          15.08          155.0          108.8          117.7
   0.01161              -33.68          3.533          9.619          32.58         -1.104          7.346         -52.63          15.08          155.0          108.8          117.7
   0.01393              -33.68          3.537          9.625          32.58         -1.107          7.345         -52.59          15.09          154.9          108.8          117.7
   0.01625              -33.69           3.54          9.631          32.58         -1.111          7.345         -52.55          15.09          154.9          108.7          117.7
   0.01857              -33.69          3.544          9.638          32.59         -1.115          7.344          -52.5           15.1          154.8          108.7          117.7
   0.02089              -33.69          3.549          9.645           32.6          -1.12          7.344         -52.46          15.11          154.7          108.7          117.7
   0.02321               -33.7          3.553          9.652           32.6         -1.124          7.343         -52.41          15.12          154.7          108.7          117.7
   0.02553               -33.7          3.559          9.661          32.61          -1.13          7.342         -52.35          15.13          154.6          108.7          117.6
   0.02785              -33.71          3.564           9.67          32.62         -1.135          7.342          -52.3          15.14          154.5          108.7          117.6
   0.03018              -33.72           3.57          9.679          32.62         -1.141          7.341         -52.24          15.15          154.4          108.7          117.6
    0.0325              -33.72          3.576           9.69          32.63         -1.147           7.34         -52.17          15.16          154.3          108.7          117.6
   0.03482              -33.73          3.583          9.701          32.64         -1.154          7.339         -52.09          15.17          154.2          108.7          117.6
   0.03714              -33.74           3.59          9.713          32.65         -1.162          7.338         -52.02          15.18          154.1          108.6          117.5
   0.03946              -33.75          3.599          9.727          32.66          -1.17          7.337         -51.93          15.19          154.0          108.6          117.5
   0.04178              -33.76          3.607          9.741          32.67         -1.179          7.336         -51.83          15.21          153.9          108.6          117.5
    0.0441              -33.77          3.617          9.757          32.68         -1.189          7.334         -51.73          15.23          153.7          108.6          117.4
   0.04642              -33.78          3.628          9.775           32.7           -1.2          7.333         -51.62          15.25          153.6          108.6          117.4
   0.04874              -33.79           3.64          9.794          32.71         -1.212          7.331         -51.49          15.27          153.4          108.5          117.4
   0.05107               -33.8          3.653          9.815          32.73         -1.225          7.329         -51.35          15.29          153.2          108.5          117.3
   0.05339              -33.82          3.667          9.839          32.75         -1.239          7.327          -51.2          15.31          153.0          108.5          117.3
   0.05571              -33.83          3.683          9.865          32.77         -1.256          7.325         -51.03          15.34          152.8          108.5          117.2
   0.05803              -33.85          3.701          9.895          32.79         -1.274          7.322         -50.84          15.37          152.5          108.4          117.1
   0.06035              -33.87          3.721          9.927          32.82         -1.294           7.32         -50.63          15.41          152.2          108.4          117.1
   0.06267               -33.9          3.743          9.964          32.85         -1.317          7.316         -50.39          15.44          151.9          108.3          117.0
   0.06499              -33.92          3.769          10.01          32.88         -1.342          7.313         -50.12          15.49          151.5          108.3          116.9
   0.06731              -33.95          3.798          10.05          32.92         -1.371          7.309         -49.81          15.54          151.1          108.2          116.8
   0.06964              -33.99          3.831          10.11          32.96         -1.405          7.304         -49.47          15.59          150.6          108.2          116.7
   0.07196              -34.02          3.868          10.17          33.01         -1.443          7.299         -49.06          15.66          150.1          108.1          116.6
   0.07428              -34.07          3.912          10.24          33.06         -1.487          7.293          -48.6          15.74          149.4          108.0          116.4
    0.0766              -34.12          3.963          10.32          33.13         -1.538          7.286         -48.06          15.82          148.7          107.9          116.2
   0.07892              -34.18          4.022          10.42           33.2         -1.598          7.277         -47.43          15.92          147.8          107.8          116.0
   0.08124              -34.26          4.092          10.54          33.29         -1.669          7.268         -46.69          16.05          146.8          107.6          115.8
   0.08356              -34.34          4.175          10.67           33.4         -1.753          7.256         -45.81          16.19          145.6          107.5          115.5
   0.08588              -34.44          4.275          10.84          33.53         -1.854          7.242         -44.75          16.36          144.1          107.2          115.1
    0.0882              -34.57          4.395          11.04          33.69         -1.976          7.225         -43.47          16.57          142.4          107.0          114.7
   0.09053              -34.72          4.542          11.28          33.87         -2.125          7.204          -41.9          16.82          140.2          106.7          114.2
   0.09285              -34.91          4.724          11.58          34.11         -2.309          7.179         -39.97          17.14          137.6          106.3          113.6
   0.09517              -35.14          4.951          11.95           34.4         -2.538          7.147         -37.57          17.53          134.2          105.9          112.8
   0.09749              -35.44          5.236          12.42          34.77         -2.827          7.107         -34.53          18.02          130.1          105.3          111.8
   0.09981              -35.81          5.599          13.01          35.23         -3.194          7.056         -30.68          18.64          124.8          104.5          110.5
    0.1021              -36.29          6.063          13.78          35.83         -3.664          6.991         -25.75          19.44          118.0          103.6          108.9
    0.1045               -36.9          6.659          14.76           36.6         -4.267          6.907         -19.41          20.47          109.3          102.4          106.8
    0.1068              -37.69           7.42          16.01          37.58         -5.037            6.8         -11.33          21.78          98.14          100.8          104.2
    0.1091              -38.68          8.377          17.58          38.81         -6.005          6.666         -1.158          23.43          84.14          98.87          100.9
    0.1114              -39.88          9.544           19.5          40.31         -7.185          6.502          11.23          25.45          67.09          96.48          96.81
